<svg xmlns="http://www.w3.org/2000/svg" xmlns:xlink="http://www.w3.org/1999/xlink" width="500" zoomAndPan="magnify" viewBox="0 0 375 374.999991" height="500" preserveAspectRatio="xMidYMid meet" version="1.0"><defs><g/><clipPath id="a3a1ce2a58"><path d="M 126 63 L 253.523438 63 L 253.523438 238 L 126 238 Z M 126 63 " clip-rule="nonzero"/></clipPath></defs><g clip-path="url(#a3a1ce2a58)"><path fill="#3e4f88" d="M 253.316406 170.820312 C 253.285156 170.113281 253.179688 169.414062 253.007812 168.726562 C 252.832031 168.042969 252.59375 167.378906 252.289062 166.738281 C 251.984375 166.097656 251.621094 165.492188 251.195312 164.925781 C 250.773438 164.355469 250.296875 163.835938 249.769531 163.363281 C 249.242188 162.886719 248.671875 162.46875 248.0625 162.109375 C 247.453125 161.746094 246.8125 161.449219 246.144531 161.214844 C 245.476562 160.980469 244.789062 160.8125 244.089844 160.714844 C 243.386719 160.613281 242.679688 160.585938 241.972656 160.625 C 241.265625 160.664062 240.566406 160.773438 239.882812 160.953125 C 239.195312 161.128906 238.53125 161.375 237.894531 161.683594 C 237.257812 161.992188 236.65625 162.359375 236.089844 162.789062 C 235.523438 163.21875 235.007812 163.695312 234.535156 164.226562 C 234.066406 164.757812 233.652344 165.328125 233.296875 165.941406 C 232.9375 166.554688 232.644531 167.195312 232.414062 167.867188 C 232.1875 168.535156 232.023438 169.222656 231.929688 169.925781 C 231.835938 170.628906 231.8125 171.332031 231.855469 172.042969 C 231.898438 172.824219 231.921875 173.621094 231.921875 174.417969 C 231.921875 175.242188 231.898438 176.0625 231.847656 176.886719 C 231.800781 177.710938 231.730469 178.53125 231.632812 179.347656 C 231.535156 180.167969 231.414062 180.980469 231.269531 181.792969 C 231.125 182.605469 230.957031 183.410156 230.765625 184.210938 C 230.574219 185.011719 230.359375 185.808594 230.121094 186.597656 C 229.878906 187.382812 229.617188 188.164062 229.332031 188.9375 C 229.046875 189.710938 228.738281 190.476562 228.410156 191.230469 C 228.078125 191.984375 227.726562 192.730469 227.351562 193.464844 C 226.976562 194.199219 226.582031 194.921875 226.164062 195.632812 C 225.746094 196.34375 225.308594 197.039062 224.851562 197.726562 C 224.394531 198.410156 223.914062 199.082031 223.417969 199.738281 C 222.921875 200.394531 222.402344 201.035156 221.867188 201.664062 C 221.332031 202.289062 220.777344 202.898438 220.207031 203.492188 C 219.632812 204.085938 219.046875 204.660156 218.441406 205.21875 C 217.835938 205.78125 217.210938 206.320312 216.574219 206.84375 C 215.9375 207.363281 215.285156 207.867188 214.617188 208.351562 C 213.949219 208.835938 213.269531 209.296875 212.574219 209.742188 C 211.878906 210.183594 211.171875 210.609375 210.453125 211.007812 C 209.730469 211.410156 209 211.792969 208.257812 212.148438 C 207.515625 212.507812 206.765625 212.84375 206.003906 213.160156 C 205.242188 213.472656 204.46875 213.765625 203.691406 214.035156 C 202.910156 214.300781 202.125 214.546875 201.332031 214.769531 C 200.539062 214.992188 199.738281 215.191406 198.933594 215.367188 C 198.125 215.542969 197.316406 215.691406 196.503906 215.820312 C 195.6875 215.949219 194.871094 216.050781 194.050781 216.128906 C 193.230469 216.207031 192.40625 216.261719 191.582031 216.292969 C 190.757812 216.324219 189.933594 216.332031 189.109375 216.3125 C 188.285156 216.296875 187.464844 216.253906 186.640625 216.1875 C 185.820312 216.121094 185 216.027344 184.183594 215.914062 C 183.371094 215.800781 182.558594 215.660156 181.75 215.496094 C 180.941406 215.335938 180.136719 215.148438 179.339844 214.9375 C 178.542969 214.726562 177.753906 214.492188 176.96875 214.238281 C 176.1875 213.980469 175.414062 213.699219 174.644531 213.398438 C 173.878906 213.09375 173.121094 212.769531 172.375 212.421875 C 171.625 212.078125 170.890625 211.707031 170.164062 211.316406 C 169.4375 210.925781 168.722656 210.515625 168.023438 210.082031 C 167.320312 209.648438 166.632812 209.195312 165.957031 208.722656 C 165.285156 208.25 164.625 207.753906 163.976562 207.242188 C 163.332031 206.730469 162.703125 206.199219 162.089844 205.648438 C 161.472656 205.101562 160.875 204.535156 160.296875 203.949219 C 159.714844 203.363281 159.152344 202.761719 158.605469 202.144531 C 158.0625 201.527344 157.535156 200.894531 157.027344 200.242188 C 156.519531 199.59375 156.03125 198.929688 155.5625 198.253906 C 155.09375 197.574219 154.644531 196.882812 154.21875 196.179688 C 153.789062 195.476562 153.382812 194.757812 152.996094 194.03125 C 152.613281 193.304688 152.25 192.5625 151.90625 191.8125 C 151.566406 191.0625 151.246094 190.304688 150.949219 189.535156 C 150.652344 188.765625 150.378906 187.992188 150.125 187.207031 C 149.875 186.421875 149.648438 185.628906 149.441406 184.832031 C 149.238281 184.03125 149.058594 183.230469 148.902344 182.421875 C 148.742188 181.613281 148.609375 180.796875 148.503906 179.980469 C 148.394531 179.164062 148.308594 178.347656 148.246094 177.523438 C 148.1875 176.703125 148.152344 175.878906 148.140625 175.054688 C 148.128906 174.230469 148.140625 173.410156 148.175781 172.585938 C 148.214844 171.761719 148.273438 170.941406 148.359375 170.121094 C 148.445312 169.300781 148.554688 168.484375 148.6875 167.671875 C 148.820312 166.859375 148.976562 166.050781 149.160156 165.246094 C 149.339844 164.441406 149.542969 163.644531 149.773438 162.851562 C 150 162.0625 150.253906 161.277344 150.527344 160.5 C 150.800781 159.722656 151.097656 158.953125 151.417969 158.195312 C 151.738281 157.4375 152.082031 156.6875 152.445312 155.949219 C 152.808594 155.207031 153.195312 154.480469 153.601562 153.765625 C 154.011719 153.046875 154.4375 152.34375 154.886719 151.652344 C 155.335938 150.960938 155.804688 150.285156 156.292969 149.621094 C 156.78125 148.957031 157.289062 148.308594 157.816406 147.675781 C 158.34375 147.042969 158.890625 146.425781 159.453125 145.824219 C 160.015625 145.222656 160.597656 144.636719 161.195312 144.070312 C 161.792969 143.503906 162.40625 142.953125 163.039062 142.421875 C 163.667969 141.890625 164.3125 141.378906 164.976562 140.886719 C 165.636719 140.394531 166.308594 139.921875 167 139.46875 C 167.6875 139.015625 168.390625 138.582031 169.101562 138.171875 C 169.816406 137.761719 170.542969 137.371094 171.28125 137 C 172.015625 136.632812 172.765625 136.285156 173.523438 135.960938 C 174.28125 135.636719 175.046875 135.335938 175.824219 135.054688 C 176.597656 134.777344 177.382812 134.519531 178.171875 134.285156 C 178.960938 134.054688 179.757812 133.84375 180.5625 133.65625 C 181.363281 133.472656 182.171875 133.308594 182.984375 133.171875 C 183.796875 133.03125 184.613281 132.917969 185.433594 132.828125 C 186.253906 132.738281 187.074219 132.671875 187.898438 132.628906 C 188.722656 132.585938 189.542969 132.570312 190.367188 132.574219 C 191.195312 132.582031 192.015625 132.613281 192.839844 132.667969 C 193.660156 132.722656 194.480469 132.804688 195.300781 132.90625 C 196.117188 133.011719 196.929688 133.140625 197.742188 133.289062 C 198.550781 133.441406 199.355469 133.617188 200.15625 133.816406 C 200.957031 134.015625 201.75 134.238281 202.535156 134.484375 C 203.324219 134.730469 204.101562 135 204.875 135.292969 C 205.644531 135.585938 206.40625 135.898438 207.160156 136.234375 C 207.910156 136.574219 208.652344 136.929688 209.382812 137.3125 C 210.113281 137.691406 210.832031 138.09375 211.539062 138.519531 C 212.25 138.941406 212.941406 139.382812 213.625 139.847656 C 214.304688 140.3125 214.972656 140.796875 215.625 141.300781 C 216.277344 141.804688 216.914062 142.324219 217.535156 142.867188 C 218.15625 143.40625 218.761719 143.964844 219.351562 144.542969 C 219.941406 145.121094 220.511719 145.714844 221.066406 146.324219 C 221.617188 146.933594 222.152344 147.5625 222.671875 148.203125 C 223.1875 148.84375 223.683594 149.503906 224.164062 150.171875 C 224.570312 150.746094 225.035156 151.277344 225.546875 151.761719 C 226.058594 152.246094 226.617188 152.671875 227.214844 153.046875 C 227.8125 153.421875 228.441406 153.734375 229.101562 153.984375 C 229.761719 154.234375 230.4375 154.417969 231.132812 154.535156 C 231.828125 154.652344 232.53125 154.703125 233.234375 154.679688 C 233.941406 154.660156 234.636719 154.570312 235.324219 154.414062 C 236.011719 154.253906 236.679688 154.03125 237.320312 153.742188 C 237.964844 153.453125 238.574219 153.105469 239.148438 152.695312 C 239.726562 152.289062 240.253906 151.828125 240.738281 151.3125 C 241.222656 150.800781 241.652344 150.246094 242.027344 149.648438 C 242.402344 149.050781 242.714844 148.421875 242.964844 147.761719 C 243.214844 147.101562 243.402344 146.425781 243.519531 145.730469 C 243.636719 145.035156 243.683594 144.335938 243.664062 143.628906 C 243.644531 142.925781 243.554688 142.230469 243.398438 141.542969 C 243.238281 140.855469 243.015625 140.1875 242.726562 139.542969 C 242.4375 138.902344 242.089844 138.292969 241.679688 137.71875 C 239.425781 134.554688 236.902344 131.625 234.113281 128.929688 C 231.320312 126.230469 228.304688 123.808594 225.070312 121.660156 C 221.835938 119.515625 218.429688 117.679688 214.859375 116.15625 C 211.285156 114.632812 207.605469 113.449219 203.816406 112.597656 L 221.285156 77.167969 C 221.5625 76.605469 221.785156 76.023438 221.945312 75.414062 C 222.109375 74.808594 222.210938 74.195312 222.25 73.566406 C 222.292969 72.941406 222.273438 72.316406 222.191406 71.695312 C 222.109375 71.074219 221.96875 70.464844 221.765625 69.871094 C 221.566406 69.277344 221.308594 68.707031 220.992188 68.164062 C 220.679688 67.621094 220.316406 67.113281 219.902344 66.640625 C 219.488281 66.167969 219.03125 65.742188 218.535156 65.359375 C 218.039062 64.976562 217.507812 64.648438 216.945312 64.371094 C 216.382812 64.09375 215.796875 63.871094 215.191406 63.710938 C 214.585938 63.546875 213.96875 63.445312 213.339844 63.402344 C 212.714844 63.363281 212.089844 63.382812 211.46875 63.464844 C 210.847656 63.546875 210.238281 63.6875 209.644531 63.890625 C 209.046875 64.089844 208.480469 64.347656 207.9375 64.660156 C 207.390625 64.976562 206.882812 65.339844 206.410156 65.75 C 205.941406 66.164062 205.511719 66.621094 205.128906 67.117188 C 204.746094 67.617188 204.417969 68.144531 204.140625 68.710938 L 179.089844 112.035156 L 178.699219 112.105469 L 187.277344 78.605469 C 187.480469 77.996094 187.617188 77.375 187.695312 76.738281 C 187.769531 76.101562 187.78125 75.460938 187.730469 74.820312 C 187.675781 74.183594 187.5625 73.554688 187.382812 72.9375 C 187.203125 72.320312 186.964844 71.730469 186.664062 71.160156 C 186.367188 70.59375 186.015625 70.0625 185.609375 69.5625 C 185.203125 69.066406 184.75 68.617188 184.253906 68.210938 C 183.757812 67.804688 183.222656 67.449219 182.65625 67.152344 C 182.089844 66.851562 181.496094 66.613281 180.878906 66.433594 C 180.261719 66.253906 179.636719 66.136719 178.996094 66.085938 C 178.355469 66.03125 177.71875 66.042969 177.078125 66.117188 C 176.441406 66.195312 175.820312 66.332031 175.210938 66.535156 C 174.597656 66.734375 174.015625 66.996094 173.457031 67.3125 C 172.902344 67.632812 172.382812 68.003906 171.898438 68.425781 C 171.417969 68.851562 170.980469 69.316406 170.59375 69.828125 C 170.207031 70.339844 169.871094 70.882812 169.59375 71.460938 C 169.316406 72.039062 169.097656 72.640625 168.941406 73.261719 L 152.996094 121.988281 L 152.996094 88.773438 C 153.027344 88.136719 153 87.503906 152.90625 86.875 C 152.816406 86.242188 152.660156 85.628906 152.445312 85.03125 C 152.230469 84.429688 151.957031 83.859375 151.628906 83.316406 C 151.300781 82.769531 150.917969 82.261719 150.488281 81.792969 C 150.058594 81.328125 149.585938 80.90625 149.070312 80.53125 C 148.554688 80.15625 148.007812 79.835938 147.429688 79.570312 C 146.847656 79.308594 146.25 79.101562 145.628906 78.957031 C 145.007812 78.8125 144.382812 78.730469 143.746094 78.710938 C 143.109375 78.691406 142.476562 78.734375 141.847656 78.839844 C 141.21875 78.949219 140.609375 79.117188 140.015625 79.34375 C 139.421875 79.574219 138.855469 79.859375 138.316406 80.203125 C 137.78125 80.542969 137.28125 80.933594 136.824219 81.375 C 136.367188 81.816406 135.953125 82.300781 135.59375 82.824219 C 135.230469 83.347656 134.921875 83.902344 134.671875 84.484375 C 134.421875 85.070312 134.230469 85.675781 134.097656 86.296875 C 133.96875 86.921875 133.898438 87.550781 133.894531 88.1875 L 132.027344 148.863281 C 131.550781 149.9375 131.109375 151.023438 130.695312 152.121094 C 130.28125 153.222656 129.898438 154.332031 129.546875 155.449219 C 129.195312 156.570312 128.875 157.699219 128.585938 158.839844 C 128.296875 159.976562 128.039062 161.121094 127.816406 162.273438 C 127.589844 163.425781 127.398438 164.585938 127.234375 165.746094 C 127.074219 166.910156 126.945312 168.078125 126.851562 169.246094 C 126.753906 170.417969 126.691406 171.589844 126.660156 172.761719 C 126.628906 173.9375 126.632812 175.109375 126.664062 176.285156 C 126.699219 177.457031 126.765625 178.628906 126.867188 179.800781 C 126.964844 180.96875 127.097656 182.136719 127.261719 183.296875 C 127.425781 184.460938 127.625 185.617188 127.851562 186.769531 C 128.082031 187.921875 128.34375 189.066406 128.636719 190.203125 C 128.925781 191.339844 129.25 192.46875 129.605469 193.585938 C 129.960938 194.707031 130.347656 195.816406 130.765625 196.914062 C 131.179688 198.011719 131.628906 199.097656 132.105469 200.167969 C 132.582031 201.242188 133.089844 202.300781 133.625 203.34375 C 134.164062 204.390625 134.726562 205.417969 135.320312 206.433594 C 135.914062 207.445312 136.535156 208.441406 137.183594 209.421875 C 137.832031 210.398438 138.507812 211.359375 139.210938 212.300781 C 139.910156 213.242188 140.640625 214.164062 141.394531 215.0625 C 142.148438 215.964844 142.925781 216.84375 143.726562 217.703125 C 144.527344 218.558594 145.355469 219.394531 146.203125 220.207031 C 147.050781 221.015625 147.921875 221.804688 148.816406 222.566406 C 149.707031 223.332031 150.621094 224.070312 151.554688 224.78125 C 152.488281 225.496094 153.441406 226.179688 154.414062 226.839844 C 155.382812 227.5 156.375 228.132812 157.378906 228.738281 C 158.386719 229.34375 159.410156 229.917969 160.449219 230.464844 C 161.488281 231.015625 162.542969 231.53125 163.609375 232.023438 C 164.675781 232.511719 165.757812 232.96875 166.851562 233.398438 C 167.945312 233.828125 169.046875 234.226562 170.164062 234.597656 C 171.28125 234.964844 172.402344 235.300781 173.539062 235.605469 C 174.671875 235.910156 175.816406 236.183594 176.964844 236.425781 C 178.113281 236.667969 179.269531 236.878906 180.429688 237.058594 C 181.589844 237.234375 182.753906 237.378906 183.925781 237.492188 C 185.09375 237.605469 186.265625 237.6875 187.4375 237.734375 C 188.613281 237.785156 189.785156 237.796875 190.960938 237.78125 C 192.132812 237.765625 193.308594 237.714844 194.480469 237.632812 C 195.652344 237.550781 196.820312 237.433594 197.984375 237.289062 C 199.148438 237.140625 200.308594 236.960938 201.464844 236.75 C 202.621094 236.535156 203.769531 236.292969 204.910156 236.019531 C 206.050781 235.742188 207.1875 235.433594 208.308594 235.097656 C 209.433594 234.757812 210.550781 234.386719 211.652344 233.988281 C 212.757812 233.585938 213.851562 233.15625 214.929688 232.695312 C 216.011719 232.234375 217.078125 231.742188 218.128906 231.222656 C 219.183594 230.703125 220.21875 230.152344 221.242188 229.574219 C 222.265625 228.996094 223.269531 228.390625 224.257812 227.753906 C 225.246094 227.121094 226.21875 226.460938 227.167969 225.773438 C 228.121094 225.082031 229.054688 224.371094 229.964844 223.628906 C 230.878906 222.890625 231.769531 222.125 232.636719 221.335938 C 233.507812 220.546875 234.355469 219.734375 235.179688 218.898438 C 236.003906 218.0625 236.804688 217.203125 237.582031 216.320312 C 238.355469 215.441406 239.109375 214.539062 239.835938 213.617188 C 240.5625 212.695312 241.261719 211.75 241.9375 210.789062 C 242.609375 209.828125 243.257812 208.847656 243.878906 207.851562 C 244.496094 206.855469 245.089844 205.839844 245.652344 204.808594 C 246.214844 203.777344 246.75 202.734375 247.253906 201.671875 C 247.757812 200.613281 248.234375 199.539062 248.679688 198.453125 C 249.125 197.367188 249.539062 196.269531 249.925781 195.160156 C 250.308594 194.050781 250.664062 192.929688 250.984375 191.800781 C 251.308594 190.671875 251.597656 189.535156 251.855469 188.390625 C 252.117188 187.242188 252.34375 186.089844 252.539062 184.933594 C 252.734375 183.777344 252.894531 182.613281 253.027344 181.445312 C 253.15625 180.277344 253.253906 179.109375 253.320312 177.9375 C 253.382812 176.765625 253.417969 175.589844 253.417969 174.417969 C 253.417969 173.210938 253.390625 172.011719 253.316406 170.820312 Z M 253.316406 170.820312 " fill-opacity="1" fill-rule="nonzero"/></g><path fill="#699dee" d="M 190.019531 136.003906 C 187.222656 136.007812 184.457031 136.316406 181.726562 136.925781 L 186.726562 145.089844 L 176.851562 196.550781 L 190.027344 208.488281 L 203.203125 196.550781 L 193.328125 145.089844 L 198.328125 136.925781 C 195.59375 136.316406 192.824219 136.007812 190.019531 136.003906 Z M 190.019531 136.003906 " fill-opacity="1" fill-rule="nonzero"/><g fill="#3e4f88" fill-opacity="1"><g transform="translate(98.496092, 282.956041)"><g><path d="M 0.859375 9.203125 C -0.578125 9.203125 -1.945312 9.0625 -3.25 8.78125 L -3.25 2.625 C -2.820312 2.707031 -2.363281 2.796875 -1.875 2.890625 C -1.394531 2.992188 -0.878906 3.046875 -0.328125 3.046875 C 0.984375 3.046875 1.921875 2.648438 2.484375 1.859375 C 3.046875 1.078125 3.328125 -0.269531 3.328125 -2.1875 L 3.328125 -29.296875 L 11.28125 -29.296875 L 11.28125 -2.859375 C 11.28125 1.109375 10.410156 4.109375 8.671875 6.140625 C 6.941406 8.179688 4.335938 9.203125 0.859375 9.203125 Z M 0.859375 9.203125 "/></g></g></g><g fill="#3e4f88" fill-opacity="1"><g transform="translate(112.943925, 282.956041)"><g><path d="M 24.390625 -11.40625 C 24.390625 -7.6875 23.390625 -4.785156 21.390625 -2.703125 C 19.398438 -0.628906 16.601562 0.40625 13 0.40625 C 9.5625 0.40625 6.820312 -0.65625 4.78125 -2.78125 C 2.738281 -4.90625 1.71875 -7.78125 1.71875 -11.40625 C 1.71875 -15.101562 2.71875 -17.976562 4.71875 -20.03125 C 6.71875 -22.082031 9.519531 -23.109375 13.125 -23.109375 C 15.351562 -23.109375 17.320312 -22.632812 19.03125 -21.6875 C 20.75 -20.738281 22.070312 -19.378906 23 -17.609375 C 23.925781 -15.835938 24.390625 -13.769531 24.390625 -11.40625 Z M 9.6875 -11.40625 C 9.6875 -9.457031 9.945312 -7.96875 10.46875 -6.9375 C 10.988281 -5.914062 11.863281 -5.40625 13.09375 -5.40625 C 14.300781 -5.40625 15.15625 -5.914062 15.65625 -6.9375 C 16.164062 -7.96875 16.421875 -9.457031 16.421875 -11.40625 C 16.421875 -13.34375 16.164062 -14.804688 15.65625 -15.796875 C 15.144531 -16.785156 14.273438 -17.28125 13.046875 -17.28125 C 11.847656 -17.28125 10.988281 -16.785156 10.46875 -15.796875 C 9.945312 -14.816406 9.6875 -13.351562 9.6875 -11.40625 Z M 9.6875 -11.40625 "/></g></g></g><g fill="#3e4f88" fill-opacity="1"><g transform="translate(139.094302, 282.956041)"><g><path d="M 16.578125 -23.109375 C 19.046875 -23.109375 21.003906 -22.070312 22.453125 -20 C 23.898438 -17.925781 24.625 -15.0625 24.625 -11.40625 C 24.625 -7.71875 23.894531 -4.828125 22.4375 -2.734375 C 20.976562 -0.640625 18.941406 0.40625 16.328125 0.40625 C 15.492188 0.40625 14.75 0.3125 14.09375 0.125 C 13.4375 -0.0507812 12.847656 -0.300781 12.328125 -0.625 C 11.816406 -0.945312 11.222656 -1.476562 10.546875 -2.21875 L 10.0625 -2.21875 L 8.8125 0 L 2.703125 0 L 2.703125 -31.1875 L 10.546875 -31.1875 L 10.546875 -24.125 C 10.546875 -23.289062 10.453125 -21.84375 10.265625 -19.78125 L 10.546875 -19.78125 C 11.304688 -20.957031 12.179688 -21.804688 13.171875 -22.328125 C 14.171875 -22.847656 15.304688 -23.109375 16.578125 -23.109375 Z M 13.703125 -16.953125 C 12.609375 -16.953125 11.804688 -16.570312 11.296875 -15.8125 C 10.796875 -15.050781 10.546875 -13.851562 10.546875 -12.21875 L 10.546875 -11.125 C 10.546875 -9.269531 10.796875 -7.9375 11.296875 -7.125 C 11.804688 -6.3125 12.640625 -5.90625 13.796875 -5.90625 C 14.710938 -5.90625 15.414062 -6.375 15.90625 -7.3125 C 16.40625 -8.257812 16.65625 -9.648438 16.65625 -11.484375 C 16.65625 -15.128906 15.671875 -16.953125 13.703125 -16.953125 Z M 13.703125 -16.953125 "/></g></g></g><g fill="#3e4f88" fill-opacity="1"><g transform="translate(165.485143, 282.956041)"><g/></g></g><g fill="#3e4f88" fill-opacity="1"><g transform="translate(176.14568, 282.956041)"><g><path d="M 31.0625 0 L 20.6875 0 L 9.984375 -20.640625 L 9.796875 -20.640625 C 10.054688 -17.390625 10.1875 -14.910156 10.1875 -13.203125 L 10.1875 0 L 3.171875 0 L 3.171875 -29.296875 L 13.515625 -29.296875 L 24.171875 -8.9375 L 24.296875 -8.9375 C 24.109375 -11.894531 24.015625 -14.265625 24.015625 -16.046875 L 24.015625 -29.296875 L 31.0625 -29.296875 Z M 31.0625 0 "/></g></g></g><g fill="#3e4f88" fill-opacity="1"><g transform="translate(210.371615, 282.956041)"><g><path d="M 13.671875 0.40625 C 9.890625 0.40625 6.953125 -0.597656 4.859375 -2.609375 C 2.765625 -4.617188 1.71875 -7.484375 1.71875 -11.203125 C 1.71875 -15.035156 2.6875 -17.976562 4.625 -20.03125 C 6.5625 -22.082031 9.328125 -23.109375 12.921875 -23.109375 C 16.347656 -23.109375 18.992188 -22.210938 20.859375 -20.421875 C 22.722656 -18.640625 23.65625 -16.078125 23.65625 -12.734375 L 23.65625 -9.234375 L 9.640625 -9.234375 C 9.691406 -7.960938 10.15625 -6.96875 11.03125 -6.25 C 11.90625 -5.53125 13.097656 -5.171875 14.609375 -5.171875 C 15.984375 -5.171875 17.25 -5.300781 18.40625 -5.5625 C 19.5625 -5.820312 20.816406 -6.265625 22.171875 -6.890625 L 22.171875 -1.265625 C 20.941406 -0.640625 19.671875 -0.207031 18.359375 0.03125 C 17.046875 0.28125 15.484375 0.40625 13.671875 0.40625 Z M 13.203125 -17.78125 C 12.285156 -17.78125 11.515625 -17.488281 10.890625 -16.90625 C 10.273438 -16.320312 9.910156 -15.410156 9.796875 -14.171875 L 16.53125 -14.171875 C 16.507812 -15.265625 16.203125 -16.140625 15.609375 -16.796875 C 15.015625 -17.453125 14.210938 -17.78125 13.203125 -17.78125 Z M 13.203125 -17.78125 "/></g></g></g><g fill="#3e4f88" fill-opacity="1"><g transform="translate(235.740487, 282.956041)"><g><path d="M 20.25 -6.96875 C 20.25 -4.539062 19.414062 -2.703125 17.75 -1.453125 C 16.09375 -0.210938 13.71875 0.40625 10.625 0.40625 C 8.9375 0.40625 7.472656 0.3125 6.234375 0.125 C 4.992188 -0.0507812 3.722656 -0.378906 2.421875 -0.859375 L 2.421875 -7.140625 C 3.640625 -6.597656 4.972656 -6.15625 6.421875 -5.8125 C 7.867188 -5.46875 9.160156 -5.296875 10.296875 -5.296875 C 11.992188 -5.296875 12.84375 -5.679688 12.84375 -6.453125 C 12.84375 -6.859375 12.601562 -7.21875 12.125 -7.53125 C 11.65625 -7.84375 10.28125 -8.453125 8 -9.359375 C 5.914062 -10.210938 4.457031 -11.179688 3.625 -12.265625 C 2.800781 -13.359375 2.390625 -14.742188 2.390625 -16.421875 C 2.390625 -18.523438 3.203125 -20.164062 4.828125 -21.34375 C 6.460938 -22.519531 8.769531 -23.109375 11.75 -23.109375 C 13.238281 -23.109375 14.640625 -22.941406 15.953125 -22.609375 C 17.273438 -22.285156 18.644531 -21.8125 20.0625 -21.1875 L 17.9375 -16.140625 C 16.894531 -16.597656 15.789062 -16.988281 14.625 -17.3125 C 13.46875 -17.644531 12.519531 -17.8125 11.78125 -17.8125 C 10.5 -17.8125 9.859375 -17.5 9.859375 -16.875 C 9.859375 -16.488281 10.082031 -16.15625 10.53125 -15.875 C 10.976562 -15.601562 12.269531 -15.046875 14.40625 -14.203125 C 16 -13.554688 17.1875 -12.914062 17.96875 -12.28125 C 18.75 -11.65625 19.320312 -10.914062 19.6875 -10.0625 C 20.0625 -9.21875 20.25 -8.1875 20.25 -6.96875 Z M 20.25 -6.96875 "/></g></g></g><g fill="#3e4f88" fill-opacity="1"><g transform="translate(257.622642, 282.956041)"><g><path d="M 13.828125 -5.796875 C 14.878906 -5.796875 16.144531 -6.054688 17.625 -6.578125 L 17.625 -0.859375 C 16.5625 -0.410156 15.550781 -0.0859375 14.59375 0.109375 C 13.644531 0.304688 12.53125 0.40625 11.25 0.40625 C 8.613281 0.40625 6.710938 -0.238281 5.546875 -1.53125 C 4.390625 -2.820312 3.8125 -4.800781 3.8125 -7.46875 L 3.8125 -16.828125 L 1.0625 -16.828125 L 1.0625 -20.015625 L 4.546875 -22.484375 L 6.578125 -27.25 L 11.703125 -27.25 L 11.703125 -22.703125 L 17.28125 -22.703125 L 17.28125 -16.828125 L 11.703125 -16.828125 L 11.703125 -8 C 11.703125 -6.53125 12.410156 -5.796875 13.828125 -5.796875 Z M 13.828125 -5.796875 "/></g></g></g></svg>